[img]http://i.imgur.com/c5LFe.jpg[/img]

[code]
Chinese.Zodiac.2012.CAM.XViD-26k
 
http://www.imdb.com/title/tt1424310/

Plot:

A man searches the world for a set of mystic artifacts - 12 bronze heads of the animals from the Chinese zodiac.

Sources - VIDEO: 720 Chinese RMVB ..... thanks .... :P
          AUDIO: 720 Chinese RMVB ..... thanks .... :P
          SUBS:  Yes HC english and chinese... 
 
Format                                   : AVI
Format/Info                              : Audio Video Interleave
File size                                : 1.58 GiB
Duration                                 : 2h 2mn
Overall bit rate                         : 1 847 Kbps
Writing library                          : VirtualDub build 32839/release

Video
ID                                       : 0
Format                                   : MPEG-4 Visual
Format profile                           : Advanced Simple@L5
Format settings, BVOP                    : 2
Format settings, QPel                    : Yes
Format settings, GMC                     : No warppoints
Format settings, Matrix                  : Default (H.263)
Muxing mode                              : Packed bitstream
Codec ID                                 : XVID
Codec ID/Hint                            : XviD
Duration                                 : 2h 2mn
Bit rate                                 : 1 707 Kbps
Width                                    : 720 pixels
Height                                   : 320 pixels
Display aspect ratio                     : 2.25:1
Frame rate                               : 30.000 fps
Color space                              : YUV
Chroma subsampling                       : 4:2:0
Bit depth                                : 8 bits
Scan type                                : Progressive
Compression mode                         : Lossy
Bits/(Pixel*Frame)                       : 0.247
Stream size                              : 1.46 GiB (92%)
Writing library                          : XviD 64

Audio
ID                                       : 1
Format                                   : MPEG Audio
Format version                           : Version 1
Format profile                           : Layer 3
Mode                                     : Joint stereo
Mode extension                           : MS Stereo
Codec ID                                 : 55
Codec ID/Hint                            : MP3
Duration                                 : 2h 2mn
Bit rate mode                            : Constant
Bit rate                                 : 128 Kbps
Channel(s)                               : 2 channels
Sampling rate                            : 44.1 KHz
Compression mode                         : Lossy
Stream size                              : 112 MiB (7%)
Alignment                                : Split accross interleaves
Interleave, duration                     : 33 ms (1.00 video frame)
Writing library                          : LAME3.98r
Encoding settings                        : -m j -V 4 -q 3 -lowpass 17 -b 128

Notes -

Took the 720 Chinese RMVB made a script to denoise and resize then dropped into vdub and 
threw sum filters at it and then muxed the cleaned up audio back to it... Sum tagging it HDTS 
its HDCAM its not LiNE audio jsut sumdamn good CAM... workin on 720 for ur enjoyment.. til then
enjoy this one.... :P

Does have HC English subs when needed and Chinese subs.. 

[/code]

Screens:

[img]http://i.imgur.com/2ZcKl.png[/img]
[img]http://i.imgur.com/02fBE.png[/img]
[img]http://i.imgur.com/zpUBJ.png[/img]
[img]http://i.imgur.com/zxcFn.jpg[/img]
[img]http://imageshack.us/a/img201/2838/55524635.png[/img]
[img]http://imageshack.us/a/img202/2269/12344528.png[/img]
[img]http://imageshack.us/a/img837/3639/29516167.png[/img]
[img]http://imageshack.us/a/img818/9432/65557740.png[/img]
[img]http://imageshack.us/a/img694/2379/24348446.png[/img]

Greetz:
XtremeEncode|CM8|RX|VISION|HDSCENE|xTriLL|ADTRG|CRYS|REMIXHD|HS|Tommiecook
BIDA|RX|REFILL|INSPiRAL|AXED|HOPE|Anonymous|GooN|NOIR|Blackjesus|Gabroo Punjab Deh
|UNiQUE|RESiSTANCE|TRiNiTY|LEGION

To all the people who have helped me, you know who you are

Anything to offer email us @: 26k@hushmail.me 